<svg version="1.1" id="Camada_1" xmlns="http://www.w3.org/2000/svg" xmlns:xlink="http://www.w3.org/1999/xlink" x="0" y="0" viewBox="0 0 91.059 91.765" xml:space="preserve">
<linearGradient id="SVGID_1_" gradientUnits="userSpaceOnUse" x1="-19.118" y1="13.965" x2="1060.882" y2="13.965">
<stop offset="0" style="stop-color:#fcadfe"/><stop offset="1" style="stop-color:#5dc9f7"/>
</linearGradient>
<linearGradient id="SVGID_00000151503520826559675630000015334846393080966543_" gradientUnits="userSpaceOnUse" x1="4.766" y1="46.601" x2="86.405" y2="46.601"><stop offset="0" style="stop-color:#fcadfe"/><stop offset="1" style="stop-color:#5dc9f7"/></linearGradient><circle fill="url(#SVGID_00000151503520826559675630000015334846393080966543_)" cx="45.585" cy="46.601" r="40.82"/><g fill="#FFF"><path d="M51.928 66.25c-.357 2.181-.744 4.358-1.056 6.545-.144 1.012-.335 1.737-1.65 1.538-1.318-.199-3.062.549-3.895-.279-.835-.83-.193-2.562-.253-3.897-.058-1.293-.054-2.59-.077-3.884.01-2.916.019-5.832.031-8.748.007-1.759 1.965-2.826 3.54-1.935.845.478 1.642 1.142 2.551 1.385 1.931.518 2.086 1.671 1.718 3.362-.425 1.945-.616 3.94-.909 5.913zM43.109 66.273c-.023 2.279-.083 4.559-.051 6.837.012.872-.174 1.206-1.143 1.226-4.069.085-4.064.122-4.644-3.924-.199-1.391-.255-2.808-.717-4.154-.328-2.357-.628-4.718-.996-7.069-.15-.96-.025-1.465 1.119-1.599 2.088-.244 4.155-.677 6.432-1.065v9.748zM34.591 66.281c.063 2.337.53 4.625.88 6.925.129.85-.048 1.099-.951 1.128-3.995.125-3.958.149-4.916-3.774-.342-1.4-.375-2.892-1.127-4.182-.215-2.541-.999-4.97-1.511-7.452-.195-.942-.109-1.375.938-1.132 1.283.298 2.593.278 3.877.174 1.374-.111 1.739.495 1.866 1.735.225 2.202.62 4.387.944 6.578zM60 66.243c-.825 2.233-1.096 4.599-1.603 6.906-.208.949-.58 1.252-1.504 1.177-.913-.075-1.846-.103-2.752.004-1.283.151-1.404-.452-1.248-1.493.327-2.183.581-4.377.865-6.566.331-2.249.695-4.494.974-6.75.097-.782.356-1.021 1.131-.841 1.491.346 3.013.43 4.517.121 1.086-.223 1.047.355.902 1.081-.426 2.122-.855 4.241-1.282 6.361z"/><path d="M69.708 42.174c-.476-.156-.763-.333-.721-.879.354-4.636-1.816-8.241-4.732-11.538-6.364-5.349-15.535-10.491-18.415-10.296.22.452.441.884.643 1.324 1.33 2.889.53 5.077-2.371 6.399-1.647.751-3.396 1.118-5.197 1.248-3.088.223-6.177.439-9.141 1.444-5.331 1.923-8.639 5.318-8.215 11.381.057.818-.512.955-1.009 1.258-3.237 1.975-4.067 5.885-1.904 9.005 2.088 3.011 5.221 4.114 8.644 4.562 6.822.891 13.381-.577 19.876-2.414.97-.274 1.712-.253 2.566.317a19.305 19.305 0 0 0 5.6 2.55c4.303 1.186 8.274.702 11.711-2.372.377-.337.767-.543 1.28-.624 3.339-.526 4.903-1.985 5.317-4.957.377-2.691-.443-5.264-3.932-6.408zm.798 5.766c-.099 1.723-.868 2.542-2.708 2.523-1.25-.013-2 .458-2.877 1.342-2.319 2.337-5.26 2.569-8.332 1.837-2.247-.535-4.296-1.551-6.14-2.9-1.049-.768-1.94-.776-3.131-.398-5.817 1.846-11.74 3.132-17.901 2.812-2.403-.125-4.768-.492-6.773-1.964-1.205-.885-2.248-1.949-2.046-3.632.204-1.699 1.391-2.546 2.905-2.899 1.606-.374 1.812-1.157 1.38-2.671-1.008-3.536.585-6.651 4.117-8.404 2.522-1.251 5.252-1.761 8.025-1.873 3.24-.13 6.344-.724 9.309-2.035 1.594-1.232 3.147-2.494 3.649-4.597.15-.628.536-.75 1.095-.466 2.844 1.443 5.718 2.837 8.083 5.046 4.544 3.341 7.734 7.339 6.447 13.461-.247 1.174.111 1.731 1.337 1.715.373-.005.749.108 1.123.17 1.961.326 2.547 1.032 2.438 2.933z"/></g></svg>